<svg width="31" height="31" viewBox="0 0 31 31" fill="none" xmlns="http://www.w3.org/2000/svg">
<path d="M26.8704 0.635986H3.387C1.5251 0.635986 0.0322266 2.12175 0.0322266 3.93767V27.0495C0.0322266 28.8654 1.5251 30.3512 3.387 30.3512H26.8704C28.7155 30.3512 30.2252 28.8654 30.2252 27.0495V3.93767C30.2252 2.12175 28.7155 0.635986 26.8704 0.635986ZM13.4513 20.4461H10.9352V17.1444H7.58046V20.4461H5.06438V10.541H7.58046V14.6682H10.9352V10.541H13.4513V20.4461ZM16.8061 10.541H23.5156C24.4382 10.541 25.193 11.2839 25.193 12.1919V18.7953C25.193 19.7032 24.4382 20.4461 23.5156 20.4461H16.8061V10.541ZM19.3222 17.9698H22.6769V13.0173H19.3222V17.9698Z" fill="white"/>
</svg>
