<svg width="16" height="12" viewBox="0 0 16 12" fill="none" xmlns="http://www.w3.org/2000/svg">
<path d="M15.3144 1.42118C14.7684 1.65709 14.1808 1.81568 13.5645 1.88759C14.1942 1.52115 14.677 0.942234 14.9043 0.250895C14.3153 0.590729 13.6637 0.836851 12.9692 0.968837C12.4137 0.394638 11.6223 0.0360107 10.7457 0.0360107C9.0645 0.0360107 7.70045 1.3587 7.70045 2.99145C7.70045 3.2235 7.72705 3.44928 7.77931 3.66571C5.24807 3.5423 3.00276 2.3649 1.50123 0.576655C1.23872 1.01338 1.08871 1.52038 1.08871 2.06257C1.08871 3.08756 1.62618 3.99379 2.44341 4.52276C1.94344 4.50714 1.47463 4.37507 1.06296 4.15246V4.18996C1.06296 5.62276 2.11293 6.81732 3.50668 7.08919C3.2512 7.15638 2.98242 7.19311 2.70429 7.19311C2.5082 7.19311 2.3176 7.17518 2.13164 7.13999C2.5191 8.31499 3.64416 9.16964 4.97775 9.19315C3.93482 9.98687 2.62148 10.4588 1.19418 10.4588C0.948056 10.4588 0.705882 10.4447 0.466797 10.4174C1.81601 11.2564 3.41606 11.7463 5.13711 11.7463C10.7402 11.7463 13.8043 7.24006 13.8043 3.33377L13.7957 2.95094C14.3894 2.53525 14.9059 2.01494 15.3144 1.42118Z" fill="#00ADEE"/>
</svg>
